<?xml version="1.0" standalone="no"?>
<!DOCTYPE svg PUBLIC "-//W3C//DTD SVG 1.1//EN" "http://www.w3.org/Graphics/SVG/1.1/DTD/svg11.dtd" >
<svg xmlns="http://www.w3.org/2000/svg">
<metadata>Generated by IcoMoon</metadata>
<defs>
<font id="icomoon" horiz-adv-x="1024">
<font-face units-per-em="1024" ascent="960" descent="-64" />
<missing-glyph horiz-adv-x="1024" />
<glyph unicode="&#x20;" horiz-adv-x="512" d="" />
<glyph unicode="&#xe801;" glyph-name="st-arrow-up" horiz-adv-x="896" d="M896 508.8l-358.4 361.6-89.6 89.6-89.6-89.6-358.4-361.6 89.6-89.6 294.4 297.6v-780.8h128v780.8l294.4-297.6z" />
<glyph unicode="&#xe802;" glyph-name="st-arrow-left" d="M451.2 896l-361.6-358.4-89.6-89.6 89.6-89.6 361.6-358.4 89.6 89.6-297.6 294.4h780.8v128h-780.8l297.6 294.4z" />
<glyph unicode="&#xe804;" glyph-name="st-checkmark" d="M915.2 928l-544-793.6-294.4 208-76.8-112 348.8-246.4c16-9.6 35.2-19.2 51.2-16s32 16 41.6 32l582.4 848-108.8 80z" />
<glyph unicode="&#xe805;" glyph-name="st-checkmark-circle" d="M512 960c-281.6 0-512-230.4-512-512s230.4-512 512-512 512 230.4 512 512-230.4 512-512 512zM473.6 211.2c-6.4-9.6-12.8-16-22.4-16s-19.2 3.2-28.8 9.6l-185.6 131.2 41.6 60.8 156.8-112 288 422.4 57.6-41.6-307.2-454.4z" />
<glyph unicode="&#xe806;" glyph-name="st-close-01" d="M1024 857.6l-102.4 102.4-409.6-409.6-409.6 409.6-102.4-102.4 409.6-409.6-409.6-409.6 102.4-102.4 409.6 409.6 409.6-409.6 102.4 102.4-409.6 409.6 409.6 409.6z" />
<glyph unicode="&#xe807;" glyph-name="st-close-circle" d="M512 960c-281.6 0-512-230.4-512-512s230.4-512 512-512 512 230.4 512 512c0 281.6-230.4 512-512 512zM768 243.2l-51.2-51.2-204.8 204.8-204.8-204.8-51.2 51.2 204.8 204.8-204.8 204.8 51.2 51.2 204.8-204.8 204.8 204.8 51.2-51.2-204.8-204.8 204.8-204.8z" />
<glyph unicode="&#xe808;" glyph-name="st-exclamation-mark" d="M404.211 960h215.579v-700.632h-215.579v700.632zM404.211 151.579h215.579v-215.579h-215.579v215.579z" />
<glyph unicode="&#xe809;" glyph-name="st-exclamation-mark-circle" d="M512 960c-281.6 0-512-230.4-512-512s230.4-512 512-512 512 230.4 512 512c0 281.6-230.4 512-512 512zM576 144h-128v128h128v-128zM576 336h-128v416h128v-416z" />
<glyph unicode="&#xe810;" glyph-name="st-i" d="M404.211 636.632h215.579v-700.632h-215.579v700.632zM512 744.421c59.284 0 107.789 48.505 107.789 107.789s-48.505 107.789-107.789 107.789-107.789-48.505-107.789-107.789 48.505-107.789 107.789-107.789z" />
<glyph unicode="&#xe811;" glyph-name="st-i-circle" d="M512 960c-281.6 0-512-230.4-512-512s230.4-512 512-512 512 230.4 512 512c0 281.6-230.4 512-512 512zM576 144h-128v416h128v-416zM512 624c-35.2 0-64 28.8-64 64s28.8 64 64 64 64-28.8 64-64c0-35.2-28.8-64-64-64z" />
<glyph unicode="&#xe812;" glyph-name="st-play" horiz-adv-x="832" d="M0 960v-1024l832 512-832 512z" />
<glyph unicode="&#xe813;" glyph-name="st-play-circle" d="M512 960c-281.6 0-512-230.4-512-512s230.4-512 512-512 512 230.4 512 512-230.4 512-512 512zM352 208v480l384-240-384-240z" />
<glyph unicode="&#xe814;" glyph-name="st-question-mark" d="M242.526 852.211c16.168 16.168 32.337 26.947 53.895 43.116s37.726 26.947 59.284 32.337c21.558 10.779 43.116 16.168 70.063 21.558s53.895 10.779 86.232 10.779c37.726 0 75.453-5.389 107.789-16.168s59.284-26.947 86.232-48.505c21.558-21.558 43.116-48.505 53.895-75.453 16.168-37.726 21.558-70.063 21.558-107.789s-5.389-70.063-16.168-97.011-21.558-48.505-37.726-64.674c-16.168-21.558-32.337-37.726-48.505-53.895s-37.726-26.947-53.895-43.116c-16.168-10.779-32.337-26.947-43.116-37.726s-21.558-26.947-21.558-43.116l-16.168-107.789h-118.568l-10.779 118.568c0 0 0 5.389 0 5.389s0 5.389 0 5.389c0 21.558 5.389 37.726 16.168 53.895s21.558 32.337 37.726 43.116c16.168 21.558 32.337 37.726 48.505 48.505 16.168 16.168 32.337 26.947 48.505 43.116s26.947 32.337 37.726 53.895c10.779 16.168 16.168 37.726 16.168 64.674 0 21.558 0 32.337-5.389 48.505-10.779 16.168-16.168 26.947-26.947 37.726-10.779 5.389-26.947 16.168-43.116 21.558s-32.337 5.389-48.505 5.389c-26.947 0-48.505-5.389-70.063-10.779-16.168-5.389-32.337-10.779-43.116-16.168-16.168-10.779-26.947-16.168-32.337-21.558-10.779-5.389-21.558-10.779-26.947-10.779-16.168 0-26.947 10.779-37.726 21.558l-43.116 75.453zM377.263 43.789c0 16.168 0 26.947 5.389 43.116s10.779 26.947 21.558 32.337 21.558 16.168 32.337 21.558c16.168 10.779 26.947 10.779 43.116 10.779s26.947-5.389 43.116-10.779c10.779-5.389 21.558-16.168 32.337-21.558s16.168-21.558 21.558-32.337c5.389-16.168 10.779-26.947 10.779-43.116s-5.389-32.337-10.779-43.116c-5.389-10.779-10.779-21.558-21.558-32.337s-21.558-16.168-32.337-21.558c-16.168-5.389-26.947-10.779-43.116-10.779s-26.947 5.389-43.116 10.779c-10.779 5.389-26.947 10.779-32.337 21.558-10.779 10.779-16.168 21.558-21.558 32.337s-5.389 26.947-5.389 43.116z" />
<glyph unicode="&#xe815;" glyph-name="st-question-mark-circle" d="M512 960c-281.6 0-512-230.4-512-512s230.4-512 512-512 512 230.4 512 512c0 281.6-230.4 512-512 512zM547.2 217.6c-3.2-6.4-6.4-12.8-12.8-19.2s-9.6-9.6-16-12.8c-6.4-3.2-12.8-3.2-22.4-3.2-6.4 0-16 0-22.4 3.2s-12.8 6.4-16 12.8-9.6 9.6-12.8 19.2c-3.2 6.4-3.2 12.8-3.2 22.4 0 6.4 0 16 3.2 22.4s6.4 12.8 12.8 19.2 9.6 9.6 16 12.8c6.4 3.2 12.8 3.2 22.4 3.2 6.4 0 16 0 22.4-3.2s12.8-6.4 16-12.8 9.6-9.6 12.8-19.2c3.2-6.4 3.2-16 3.2-22.4 0-9.6 0-16-3.2-22.4zM643.2 537.6c-6.4-12.8-12.8-25.6-19.2-35.2-9.6-9.6-16-19.2-25.6-25.6s-19.2-16-25.6-22.4c-9.6-6.4-16-12.8-22.4-19.2s-9.6-12.8-9.6-22.4l-9.6-54.4h-60.8l-9.6 57.6c0 0 0 3.2 0 3.2s0 3.2 0 3.2c0 9.6 3.2 19.2 6.4 28.8 6.4 9.6 12.8 16 19.2 22.4s16 12.8 25.6 22.4 19.2 12.8 25.6 22.4 16 16 19.2 25.6c6.4 9.6 6.4 22.4 6.4 35.2 0 9.6 0 16-6.4 25.6-3.2 6.4-6.4 12.8-12.8 19.2s-12.8 9.6-19.2 12.8c-3.2 0-12.8 3.2-22.4 3.2-12.8 0-25.6 0-35.2-3.2s-16-6.4-25.6-9.6c-6.4-3.2-12.8-6.4-16-9.6-3.2-6.4-6.4-9.6-9.6-9.6-9.6 0-16 3.2-19.2 12.8l-22.4 38.4c9.6 6.4 16 16 25.6 22.4s19.2 12.8 32 19.2c12.8 6.4 22.4 9.6 35.2 12.8 12.8 0 28.8 0 44.8 0 22.4 0 38.4-3.2 57.6-9.6 16-6.4 32-16 44.8-25.6s22.4-25.6 28.8-41.6c6.4-16 9.6-32 9.6-54.4-3.2-16-3.2-32-9.6-44.8z" />
<glyph unicode="&#xe823;" glyph-name="st-facebook" d="M960 960h-896c-35.2 0-64-28.8-64-64v-896c0-35.2 28.8-64 64-64h480v384h-128v160h128v96c0 131.2 73.6 224 192 224 57.6 0 96 0 128 0v-160h-64c-64 0-96-32-96-96v-64h160l-32-160h-128v-384h256c35.2 0 64 28.8 64 64v896c0 35.2-28.8 64-64 64z" />
<glyph unicode="&#xe824;" glyph-name="st-linkedin" d="M960 960h-896c-35.2 0-64-28.8-64-64v-896c0-35.2 28.8-64 64-64h896c35.2 0 64 28.8 64 64v896c0 35.2-28.8 64-64 64zM352 160h-128v448h128v-448zM288 640c-35.2 0-64 28.8-64 64s28.8 64 64 64 64-28.8 64-64c0-35.2-28.8-64-64-64zM800 160h-128v256c0 41.6-22.4 64-64 64s-64-22.4-64-64v-256h-128v448h128v-64c6.4 32 22.4 64 112 64 128 0 144-96 144-224v-224z" />
<glyph unicode="&#xe825;" glyph-name="st-instagram" d="M704 448c0-105.6-86.4-192-192-192s-192 86.4-192 192c0 19.2 3.2 35.2 9.6 54.4h-51.2v-246.4c0-22.4 19.2-41.6 41.6-41.6h384c22.4 0 41.6 19.2 41.6 41.6v246.4h-51.2c6.4-19.2 9.6-35.2 9.6-54.4zM937.6 960h-851.2c-48 0-86.4-38.4-86.4-86.4v-854.4c0-44.8 38.4-83.2 86.4-83.2h854.4c48 0 86.4 38.4 86.4 86.4v851.2c-3.2 48-41.6 86.4-89.6 86.4zM832 201.6c0-41.6-35.2-73.6-73.6-73.6h-492.8c-38.4 0-73.6 35.2-73.6 73.6v492.8c0 38.4 35.2 73.6 73.6 73.6h480c41.6-3.2 86.4-35.2 86.4-73.6v-492.8zM630.4 448c0-65.391-53.009-118.4-118.4-118.4s-118.4 53.009-118.4 118.4c0 65.391 53.009 118.4 118.4 118.4s118.4-53.009 118.4-118.4zM726.4 681.6h-64c-12.8 0-22.4-9.6-22.4-22.4v-64c0-12.8 9.6-22.4 22.4-22.4h64c12.8 0 22.4 9.6 22.4 22.4v64c-3.2 12.8-9.6 22.4-22.4 22.4z" />
<glyph unicode="&#xe826;" glyph-name="st-small-arrow-up" horiz-adv-x="1820" d="M0 21.333l85.333-85.333 824.889 847.644 824.889-847.644 85.333 85.333-910.222 938.667z" />
<glyph unicode="&#xe827;" glyph-name="st-small-arrow-right" horiz-adv-x="576" d="M48 960l-48-48 476.8-464-476.8-464 48-48 528 512z" />
<glyph unicode="&#xe828;" glyph-name="st-small-arrow-left" horiz-adv-x="576" d="M528-64l48 48-476.8 464 476.8 464-48 48-528-512z" />
<glyph unicode="&#xe829;" glyph-name="st-small-arrow-down" horiz-adv-x="1820" d="M1820.444 874.667l-85.333 85.333-824.889-847.644-824.889 847.644-85.333-85.333 910.222-938.667z" />
<glyph unicode="&#xe830;" glyph-name="st-settings-01" horiz-adv-x="256" d="M128 320c-70.4 0-128 57.6-128 128s57.6 128 128 128 128-57.6 128-128-57.6-128-128-128zM128 704c-70.4 0-128 57.6-128 128s57.6 128 128 128 128-57.6 128-128-57.6-128-128-128zM128-64c-70.4 0-128 57.6-128 128s57.6 128 128 128 128-57.6 128-128-57.6-128-128-128z" />
<glyph unicode="&#xe831;" glyph-name="st-settings-02" horiz-adv-x="992" d="M873.6 396.8c3.2 16 3.2 32 3.2 51.2s0 32-3.2 51.2l108.8 83.2c9.6 6.4 12.8 22.4 6.4 32l-102.4 176c-6.4 9.6-19.2 16-32 9.6l-128-51.2c-25.6 19.2-54.4 38.4-86.4 51.2l-19.2 134.4c0 16-9.6 25.6-22.4 25.6h-204.8c-12.8 0-22.4-9.6-25.6-22.4l-19.2-134.4c-32-12.8-60.8-28.8-86.4-51.2l-128 51.2c-12.8 3.2-25.6 0-32-9.6l-102.4-176c-6.4-9.6-3.2-25.6 6.4-32l108.8-83.2c-3.2-16-3.2-32-3.2-51.2s0-32 3.2-51.2l-108.8-83.2c-9.6-6.4-12.8-22.4-6.4-32l102.4-176c6.4-9.6 19.2-16 32-9.6l128 51.2c25.6-19.2 54.4-38.4 86.4-51.2l19.2-134.4c3.2-12.8 12.8-22.4 25.6-22.4h204.8c12.8 0 22.4 9.6 25.6 22.4l19.2 134.4c32 12.8 60.8 28.8 86.4 51.2l128-51.2c12.8-3.2 25.6 0 32 9.6l102.4 176c6.4 9.6 3.2 25.6-6.4 32l-112 80zM496 268.8c-99.2 0-179.2 80-179.2 179.2s80 179.2 179.2 179.2 179.2-80 179.2-179.2-80-179.2-179.2-179.2z" />
<glyph unicode="&#xe832;" glyph-name="st-close-02" d="M1024 912l-48 48-464-464-464 464-48-48 464-464-464-464 48-48 464 464 464-464 48 48-464 464z" />
<glyph unicode="&#xe833;" glyph-name="st-arrow-right" d="M572.8 0l361.6 358.4 89.6 89.6-89.6 89.6-361.6 358.4-89.6-89.6 297.6-294.4h-780.8v-128h780.8l-297.6-294.4z" />
<glyph unicode="&#xe834;" glyph-name="st-arrow-down" horiz-adv-x="896" d="M0 387.2l358.4-361.6 89.6-89.6 89.6 89.6 358.4 361.6-89.6 89.6-294.4-297.6v780.8h-128v-780.8l-294.4 297.6z" />
<glyph unicode="&#xe835;" glyph-name="minus-thin" d="M0 505.6h1024v-73.6h-1024v73.6z" />
<glyph unicode="&#xe836;" glyph-name="minus-thick" d="M0 496h1024v-112h-1024v112z" />
</font>
</defs>
</svg>
